<?xml version="1.0" encoding="utf-8"?>
<!-- Generator: Adobe Illustrator 28.1.0, SVG Export Plug-In . SVG Version: 6.00 Build 0)  -->
<svg version="1.1" id="Layer_1" xmlns="http://www.w3.org/2000/svg" xmlns:xlink="http://www.w3.org/1999/xlink" x="0px" y="0px"
	 viewBox="0 0 356.1 54.4" style="enable-background:new 0 0 356.1 54.4;" xml:space="preserve">
<style type="text/css">
	.st0{fill:none;stroke:#231F20;stroke-width:0.365;stroke-miterlimit:10;}
	.st1{enable-background:new    ;}
	.st2{fill:none;stroke:#231F20;stroke-width:0.5;stroke-miterlimit:10;}
</style>
<g>
	<g>
		<path d="M205.2,28.2h-12.9V0.6h12.4c5.6,0,9,2.8,9,7.2c0,3.3-2,5.5-4.7,6.3c3.2,0.7,5.3,3.5,5.3,6.6
			C214.3,25.3,211,28.2,205.2,28.2z M203.4,6H199v5.8h4.4c2.2,0,3.4-1,3.4-2.9C206.8,7,205.6,6,203.4,6z M203.9,16.7H199v6.1h5
			c2.2,0,3.5-1,3.5-3C207.5,17.8,206.1,16.7,203.9,16.7z"/>
		<path d="M218.2,0.6h6.7v27.6h-6.7V0.6z"/>
		<path d="M255.6,9.3h-7.4c-1-1.8-2.9-2.8-5.4-2.8c-4.3,0-7.2,3.1-7.2,7.9c0,5.1,2.9,8.1,7.7,8.1c3.3,0,5.7-1.8,6.7-4.9h-8.5v-5H256
			v6.3c-1.4,4.8-6,9.5-13.3,9.5c-8.3,0-14.1-5.8-14.1-14s5.8-14.1,14-14.1C249.3,0.3,254.1,3.7,255.6,9.3z"/>
		<path d="M281,28.2h-12.9V0.6h12.4c5.6,0,9,2.8,9,7.2c0,3.3-2,5.5-4.7,6.3c3.2,0.7,5.3,3.5,5.3,6.6C290.1,25.3,286.8,28.2,281,28.2
			z M279.2,6h-4.4v5.8h4.4c2.2,0,3.4-1,3.4-2.9C282.7,7,281.5,6,279.2,6z M279.7,16.7h-4.9v6.1h5c2.2,0,3.5-1,3.5-3
			C283.3,17.8,282,16.7,279.7,16.7z"/>
		<path d="M293.9,0.6h6.7v16.5c0,3.3,1.6,5.2,4.8,5.2c3.2,0,4.9-1.9,4.9-5.2V0.6h6.7v16.5c0,7.6-5.3,11.4-11.7,11.4
			c-6.4,0-11.4-3.8-11.4-11.4V0.6z"/>
		<path d="M328.5,0.6V23h8.8v5.2h-15.5V0.6H328.5z"/>
		<path d="M347.2,0.6V23h8.8v5.2h-15.5V0.6H347.2z"/>
	</g>
	<g>
		<path d="M194.5,46.3v7.6h-2.2V37.2h2.2v7.7l6.9-7.7h2.8l-7.6,8.4l7.6,8.3h-2.9L194.5,46.3z"/>
		<path d="M212.1,40.6c2.4,0,4.1,1.2,4.9,2.6v-2.4h2.2v13.1h-2.2v-2.4c-0.8,1.4-2.5,2.7-4.9,2.7c-3.5,0-6.2-2.8-6.2-6.8
			C205.8,43.2,208.5,40.6,212.1,40.6z M212.5,42.5c-2.4,0-4.4,1.7-4.4,4.8c0,3.1,2,4.9,4.4,4.9c2.4,0,4.5-1.8,4.5-4.9
			C216.9,44.3,214.9,42.5,212.5,42.5z"/>
		<path d="M232.4,46.5c0-2.7-1.5-4-3.7-4c-2.2,0-3.8,1.4-3.8,4.2v7.3h-2.2V40.8h2.2v1.9c0.9-1.4,2.4-2.1,4.2-2.1
			c3,0,5.4,1.9,5.4,5.6v7.7h-2.2V46.5z"/>
		<path d="M243.6,40.6c2.1,0,4,1.1,4.9,2.6v-6.9h2.2v17.7h-2.2v-2.5c-0.8,1.5-2.5,2.7-4.9,2.7c-3.5,0-6.2-2.8-6.2-6.8
			C237.3,43.2,240.1,40.6,243.6,40.6z M244,42.5c-2.4,0-4.4,1.7-4.4,4.8c0,3.1,2,4.9,4.4,4.9c2.4,0,4.5-1.8,4.5-4.9
			C248.5,44.3,246.4,42.5,244,42.5z"/>
		<path d="M254,37.2c0-0.8,0.6-1.5,1.5-1.5c0.8,0,1.4,0.6,1.4,1.5s-0.6,1.5-1.4,1.5C254.6,38.6,254,38,254,37.2z M254.4,40.8h2.2
			v13.1h-2.2V40.8z"/>
		<path d="M261,40.8l4.1,11.1l4.1-11.1h2.3l-5.2,13.1h-2.5l-5.2-13.1H261z"/>
		<path d="M279.1,40.6c2.4,0,4.1,1.2,4.9,2.6v-2.4h2.2v13.1H284v-2.4c-0.8,1.4-2.5,2.7-4.9,2.7c-3.5,0-6.2-2.8-6.2-6.8
			C272.9,43.2,275.6,40.6,279.1,40.6z M279.5,42.5c-2.4,0-4.4,1.7-4.4,4.8c0,3.1,2,4.9,4.4,4.9c2.4,0,4.5-1.8,4.5-4.9
			C284,44.3,281.9,42.5,279.5,42.5z"/>
		<path d="M289.9,36.2h2.2v17.7h-2.2V36.2z"/>
		<path d="M295.4,37.2c0-0.8,0.6-1.5,1.5-1.5c0.8,0,1.4,0.6,1.4,1.5s-0.6,1.5-1.4,1.5C296.1,38.6,295.4,38,295.4,37.2z M295.8,40.8
			h2.2v13.1h-2.2V40.8z"/>
	</g>
</g>
<g>
	<g>
		<path d="M28.2,9.6h-7.8c-1.1-1.9-3-3-5.7-3c-4.5,0-7.5,3.2-7.5,8.2c0,5.4,3,8.5,8.1,8.5c3.5,0,5.9-1.9,7-5.1h-8.9V13h15.3v6.5
			c-1.5,5-6.3,10-13.9,10C6.1,29.5,0,23.5,0,14.8S6.1,0.1,14.7,0.1C21.6,0.1,26.6,3.6,28.2,9.6z"/>
		<path d="M46.2,29.6c-8.2,0-14.9-6.1-14.9-14.8C31.4,6.1,38,0,46.2,0C54.5,0,61,6.1,61,14.8C61,23.5,54.4,29.6,46.2,29.6z
			 M46.2,23.2c4.6,0,7.6-3.3,7.6-8.4c0-5.1-3-8.4-7.6-8.4c-4.7,0-7.7,3.3-7.7,8.4C38.6,19.8,41.5,23.2,46.2,23.2z"/>
		<path d="M90.9,14.9c0,8.6-5.9,14.5-15.2,14.5H64.9V0.4h10.8C85,0.4,90.9,6.3,90.9,14.9z M75.3,23.2c5.3,0,8.4-3,8.4-8.4
			s-3.1-8.4-8.4-8.4H72v16.8H75.3z"/>
		<path d="M106.7,0.4c7.1,0,10.6,4.1,10.6,9.1c0,3.6-2,7-6.4,8.4l6.7,11.4h-7.9l-6-10.9h-1.7v10.9h-7V0.4H106.7z M106.3,6.3h-4.4
			v7.2h4.4c2.6,0,3.9-1.4,3.9-3.6C110.1,7.7,108.9,6.3,106.3,6.3z"/>
		<path d="M139.4,6.1h-10.7v5.8h9.4v5.4h-9.4v6.3h10.7v5.6h-17.7V0.4h17.7V6.1z"/>
		<path d="M155.1,0.4h7v19.7c0,6.2-3.8,9.5-9.5,9.5c-5.9,0-10.1-3.5-10.1-10h7c0,2.5,1.1,3.7,2.9,3.7c1.7,0,2.7-1.1,2.7-3.2V0.4z"/>
	</g>
	<g>
		<g>
			<line class="st0" x1="0" y1="38.6" x2="162.1" y2="38.6"/>
		</g>
		<g class="st1">
			<path d="M4.8,53H2l-0.5,1.3H0l2.6-6.6h1.7l2.6,6.6H5.3L4.8,53z M4.4,52l-1-2.8l-1,2.7L4.4,52L4.4,52z"/>
			<path d="M9.2,47.7v4.1c0,0.4,0.1,0.8,0.4,1c0.2,0.2,0.6,0.3,1.1,0.3c0.5,0,0.8-0.1,1.1-0.3c0.2-0.2,0.4-0.6,0.4-1v-4.1h1.5v4
				c0,0.5-0.1,1-0.4,1.4c-0.2,0.4-0.6,0.7-1.1,0.9c-0.4,0.2-0.9,0.3-1.5,0.3s-1-0.1-1.5-0.3c-0.4-0.2-0.8-0.5-1-0.9
				c-0.2-0.4-0.4-0.9-0.4-1.4v-4H9.2z"/>
			<path d="M19.9,47.7v1.1H18v5.5h-1.5v-5.5h-1.9v-1.1H19.9z"/>
			<path d="M26.8,47.7v6.6h-1.5v-2.8h-3.1v2.8h-1.5v-6.6h1.5v2.7h3.1v-2.7H26.8z"/>
			<path d="M29.7,53.9c-0.6-0.3-1-0.7-1.3-1.2c-0.3-0.5-0.5-1.1-0.5-1.8c0-0.6,0.1-1.2,0.5-1.7c0.3-0.5,0.8-0.9,1.3-1.2
				c0.6-0.3,1.2-0.4,1.8-0.4s1.3,0.1,1.8,0.4c0.5,0.3,1,0.7,1.3,1.2c0.3,0.5,0.5,1.1,0.5,1.7s-0.1,1.2-0.5,1.8
				c-0.3,0.5-0.8,0.9-1.3,1.2c-0.6,0.3-1.2,0.4-1.8,0.4S30.3,54.2,29.7,53.9z M32.7,52.9c0.3-0.2,0.6-0.4,0.8-0.8
				c0.2-0.3,0.3-0.7,0.3-1.2c0-0.4-0.1-0.8-0.3-1.2S33,49.2,32.7,49c-0.3-0.2-0.7-0.2-1.1-0.2c-0.4,0-0.8,0.1-1.2,0.2
				c-0.3,0.2-0.6,0.4-0.8,0.8c-0.2,0.3-0.3,0.7-0.3,1.2c0,0.4,0.1,0.8,0.3,1.2s0.4,0.6,0.8,0.8c0.3,0.2,0.7,0.3,1.2,0.3
				C32,53.1,32.4,53.1,32.7,52.9z"/>
			<path d="M40,54.3l-1.6-2.6h-0.7v2.6h-1.5v-6.6h2.7c0.5,0,1,0.1,1.4,0.3c0.4,0.2,0.7,0.4,0.9,0.7c0.2,0.3,0.3,0.6,0.3,1
				c0,0.4-0.1,0.8-0.4,1.2c-0.3,0.3-0.7,0.6-1.2,0.7l1.7,2.7L40,54.3L40,54.3z M37.8,50.7h1.2c0.4,0,0.7-0.1,0.9-0.2
				c0.2-0.2,0.3-0.4,0.3-0.7c0-0.3-0.1-0.5-0.3-0.7c-0.2-0.1-0.5-0.2-0.9-0.2h-1.2L37.8,50.7L37.8,50.7z"/>
			<path d="M44.3,47.7v6.6h-1.5v-6.6H44.3z"/>
			<path d="M46.9,54.1c-0.4-0.1-0.7-0.4-1-0.7c-0.2-0.3-0.3-0.6-0.3-1h1.6c0,0.3,0.1,0.5,0.3,0.6c0.2,0.1,0.4,0.2,0.8,0.2
				s0.6-0.1,0.8-0.2s0.3-0.3,0.3-0.6c0-0.2,0-0.3-0.2-0.5s-0.3-0.2-0.5-0.3c-0.2,0-0.5-0.1-0.8-0.2c-0.5-0.1-0.8-0.2-1.1-0.4
				c-0.3-0.1-0.5-0.3-0.7-0.5c-0.2-0.2-0.3-0.6-0.3-1c0-0.4,0.1-0.7,0.3-1c0.2-0.3,0.5-0.5,0.9-0.7c0.4-0.1,0.8-0.2,1.3-0.2
				c0.7,0,1.4,0.1,1.8,0.5c0.4,0.3,0.7,0.8,0.8,1.4h-1.6c0-0.2-0.1-0.4-0.3-0.6c-0.2-0.1-0.4-0.2-0.8-0.2c-0.3,0-0.5,0-0.7,0.2
				c-0.1,0.1-0.2,0.3-0.2,0.6c0,0.2,0,0.3,0.2,0.4c0.1,0.1,0.3,0.2,0.5,0.3c0.2,0,0.4,0.1,0.8,0.2c0.5,0.1,0.8,0.2,1.1,0.4
				c0.3,0.1,0.5,0.3,0.8,0.6c0.2,0.3,0.3,0.6,0.3,1c0,0.3-0.1,0.7-0.3,1c-0.2,0.3-0.5,0.5-0.9,0.7c-0.4,0.2-0.8,0.3-1.4,0.3
				C47.7,54.4,47.3,54.3,46.9,54.1z"/>
			<path d="M53.4,48.8v1.7h2.4v1h-2.4v1.8h2.7v1.1H52v-6.6h4.1v1.1H53.4z"/>
			<path d="M62,48.1c0.6,0.3,1,0.6,1.3,1.2c0.3,0.5,0.5,1.1,0.5,1.8c0,0.7-0.1,1.2-0.5,1.7c-0.3,0.5-0.7,0.9-1.3,1.1
				c-0.6,0.3-1.2,0.4-2,0.4h-2.5v-6.6H60C60.7,47.7,61.4,47.8,62,48.1z M61.7,52.6c0.4-0.4,0.6-0.9,0.6-1.6c0-0.7-0.2-1.2-0.6-1.6
				c-0.4-0.4-1-0.6-1.8-0.6h-1v4.3h1C60.7,53.1,61.3,52.9,61.7,52.6z"/>
			<path d="M67.4,49.2c0.3-0.5,0.7-0.9,1.3-1.2c0.5-0.3,1.2-0.4,1.8-0.4c0.8,0,1.5,0.2,2.1,0.6c0.6,0.4,1,0.9,1.3,1.6h-1.7
				c-0.1-0.3-0.4-0.5-0.7-0.7c-0.3-0.1-0.6-0.2-1-0.2c-0.4,0-0.8,0.1-1.1,0.3c-0.3,0.2-0.6,0.4-0.8,0.8c-0.2,0.3-0.3,0.7-0.3,1.2
				c0,0.4,0.1,0.8,0.3,1.1c0.2,0.3,0.4,0.6,0.8,0.8s0.7,0.3,1.1,0.3c0.4,0,0.7-0.1,1-0.2c0.3-0.1,0.5-0.4,0.7-0.7h1.7
				c-0.2,0.7-0.7,1.2-1.3,1.6c-0.6,0.4-1.3,0.6-2.1,0.6c-0.7,0-1.3-0.1-1.8-0.4c-0.5-0.3-1-0.7-1.3-1.2c-0.3-0.5-0.5-1.1-0.5-1.8
				C66.9,50.3,67.1,49.7,67.4,49.2z"/>
			<path d="M81.1,47.7v6.6h-1.5v-2.8h-3.1v2.8h-1.5v-6.6h1.5v2.7h3.1v-2.7H81.1z"/>
			<path d="M86.9,53H84l-0.5,1.3h-1.5l2.6-6.6h1.7l2.6,6.6h-1.5L86.9,53z M86.5,52l-1-2.7l-1,2.7H86.5z"/>
			<path d="M96,54.3h-1.5l-3.3-4.5v4.5h-1.5v-6.6h1.5l3.3,4.5v-4.5H96V54.3z"/>
			<path d="M103.6,54.3h-1.5l-3.3-4.5v4.5h-1.5v-6.6h1.5l3.3,4.5v-4.5h1.5V54.3z"/>
			<path d="M106.4,48.8v1.7h2.4v1h-2.4v1.8h2.7v1.1H105v-6.6h4.1v1.1H106.4z"/>
			<path d="M111.9,53.2h2.4v1h-3.8v-6.6h1.5L111.9,53.2L111.9,53.2z"/>
			<path d="M122.6,50.7c-0.2,0.3-0.5,0.5-0.9,0.7c-0.4,0.2-0.9,0.3-1.5,0.3H119v2.5h-1.5v-6.6h2.6c0.5,0,1,0.1,1.4,0.2
				c0.4,0.2,0.7,0.4,0.9,0.7c0.2,0.3,0.3,0.6,0.3,1C122.8,50.1,122.7,50.4,122.6,50.7z M121.1,50.4c0.2-0.1,0.3-0.4,0.3-0.7
				c0-0.6-0.4-1-1.2-1h-1.1v1.9h1.1C120.6,50.7,120.9,50.6,121.1,50.4z"/>
			<path d="M128.3,53h-2.9l-0.5,1.3h-1.5l2.6-6.6h1.7l2.6,6.6h-1.5L128.3,53z M127.8,52l-1-2.7l-1,2.7H127.8z"/>
			<path d="M134.9,54.3l-1.6-2.6h-0.7v2.6h-1.5v-6.6h2.7c0.5,0,1,0.1,1.4,0.3c0.4,0.2,0.7,0.4,0.9,0.7c0.2,0.3,0.3,0.6,0.3,1
				c0,0.4-0.1,0.8-0.4,1.2c-0.3,0.3-0.7,0.6-1.2,0.7l1.7,2.7L134.9,54.3L134.9,54.3L134.9,54.3z M132.7,50.7h1.2
				c0.4,0,0.7-0.1,0.9-0.2c0.2-0.2,0.3-0.4,0.3-0.7c0-0.3-0.1-0.5-0.3-0.7c-0.2-0.1-0.5-0.2-0.9-0.2h-1.2V50.7z"/>
			<path d="M142.7,47.7v1.1h-1.9v5.5h-1.5v-5.5h-1.9v-1.1H142.7z"/>
			<path d="M149.8,54.3h-1.5l-3.3-4.5v4.5h-1.5v-6.6h1.5l3.3,4.5v-4.5h1.5V54.3z"/>
			<path d="M152.7,48.8v1.7h2.4v1h-2.4v1.8h2.7v1.1h-4.1v-6.6h4.1v1.1H152.7z"/>
			<path d="M160.5,54.3l-1.6-2.6h-0.7v2.6h-1.5v-6.6h2.7c0.5,0,1,0.1,1.4,0.3c0.4,0.2,0.7,0.4,0.9,0.7s0.3,0.6,0.3,1
				c0,0.4-0.1,0.8-0.4,1.2c-0.3,0.3-0.7,0.6-1.2,0.7l1.7,2.7L160.5,54.3L160.5,54.3z M158.2,50.7h1.2c0.4,0,0.7-0.1,0.9-0.2
				c0.2-0.2,0.3-0.4,0.3-0.7c0-0.3-0.1-0.5-0.3-0.7c-0.2-0.1-0.5-0.2-0.9-0.2h-1.2V50.7z"/>
		</g>
	</g>
</g>
<line class="st2" x1="177" y1="0.3" x2="177" y2="53.9"/>
</svg>
